<svg width="147" height="21" viewBox="0 0 147 21" fill="none" xmlns="http://www.w3.org/2000/svg">
<path d="M15.7591 20.5051H13.041L2.71805 4.70377V20.5051H0V0H2.71805L13.0692 15.8717V0H15.7591V20.5051Z" fill="white"/>
<path d="M39.7145 12.4777V20.5051H37.0105V0H44.5732C46.8171 0 48.5728 0.572715 49.8403 1.71815C51.1172 2.86358 51.7556 4.37986 51.7556 6.26701C51.7556 8.25743 51.1312 9.79249 49.8825 10.8722C48.6432 11.9425 46.8641 12.4777 44.545 12.4777H39.7145ZM39.7145 10.2666H44.5732C46.0191 10.2666 47.1269 9.92863 47.8968 9.25264C48.6667 8.56726 49.0516 7.58143 49.0516 6.29517C49.0516 5.07463 48.6667 4.0982 47.8968 3.36587C47.1269 2.63355 46.0707 2.25331 44.7281 2.22514H39.7145V10.2666Z" fill="white"/>
<path d="M62.1631 7.60491C61.7687 7.53918 61.3415 7.50632 60.8815 7.50632C59.1727 7.50632 58.0132 8.23395 57.403 9.68921V20.5051H54.7976V5.2671H57.3325L57.3748 7.0275C58.2292 5.66612 59.4403 4.98544 61.0082 4.98544C61.5152 4.98544 61.9002 5.05116 62.1631 5.1826V7.60491Z" fill="white"/>
<path d="M70.613 20.7867C68.5474 20.7867 66.8668 20.1108 65.5712 18.7588C64.2755 17.3974 63.6277 15.5807 63.6277 13.3086V12.8298C63.6277 11.3182 63.9141 9.97088 64.4868 8.78789C65.0689 7.59552 65.8763 6.66603 66.9091 5.99943C67.9512 5.32343 69.0779 4.98544 70.289 4.98544C72.2701 4.98544 73.8098 5.63796 74.9083 6.943C76.0068 8.24804 76.556 10.1164 76.556 12.5481V13.6325H66.2331C66.2706 15.1347 66.7072 16.3505 67.5428 17.28C68.3878 18.2001 69.4581 18.6602 70.7538 18.6602C71.6739 18.6602 72.4531 18.4724 73.0916 18.0969C73.73 17.7213 74.2887 17.2237 74.7675 16.604L76.3589 17.8434C75.082 19.8056 73.1667 20.7867 70.613 20.7867ZM70.289 7.12608C69.2375 7.12608 68.3549 7.51102 67.6414 8.2809C66.9279 9.04139 66.4866 10.1117 66.3176 11.4919H73.9507V11.2947C73.8755 9.97088 73.5188 8.9475 72.8803 8.22456C72.2419 7.49224 71.3781 7.12608 70.289 7.12608Z" fill="white"/>
<path d="M88.4563 16.4632C88.4563 15.7591 88.1887 15.2145 87.6536 14.8296C87.1278 14.4352 86.203 14.0972 84.8792 13.8156C83.5648 13.5339 82.5179 13.1959 81.7386 12.8016C80.9688 12.4073 80.396 11.9378 80.0205 11.3933C79.6543 10.8487 79.4713 10.2009 79.4713 9.4498C79.4713 8.20109 79.997 7.14486 81.0486 6.28109C82.1095 5.41732 83.4615 4.98544 85.1045 4.98544C86.8321 4.98544 88.231 5.4314 89.3013 6.32334C90.381 7.21527 90.9209 8.35601 90.9209 9.74555H88.3014C88.3014 9.032 87.9963 8.41703 87.386 7.90065C86.7851 7.38427 86.0246 7.12608 85.1045 7.12608C84.1563 7.12608 83.4145 7.33263 82.8794 7.74574C82.3442 8.15884 82.0766 8.6987 82.0766 9.3653C82.0766 9.99435 82.3254 10.4685 82.8231 10.7877C83.3207 11.1069 84.2173 11.4121 85.5129 11.7031C86.818 11.9942 87.8742 12.3415 88.6816 12.7453C89.4891 13.149 90.0853 13.6372 90.4702 14.2099C90.8645 14.7732 91.0617 15.4633 91.0617 16.2801C91.0617 17.6415 90.5171 18.7353 89.428 19.5615C88.339 20.3783 86.9259 20.7867 85.189 20.7867C83.9685 20.7867 82.8888 20.5708 81.9499 20.1389C81.011 19.707 80.274 19.1062 79.7388 18.3363C79.2131 17.557 78.9502 16.7167 78.9502 15.8154H81.5556C81.6025 16.6885 81.9499 17.3833 82.5977 17.8997C83.2549 18.4067 84.1187 18.6602 85.189 18.6602C86.1748 18.6602 86.9635 18.463 87.555 18.0687C88.1559 17.665 88.4563 17.1298 88.4563 16.4632Z" fill="white"/>
<path d="M103.328 16.4632C103.328 15.7591 103.061 15.2145 102.525 14.8296C102 14.4352 101.075 14.0972 99.751 13.8156C98.4366 13.5339 97.3897 13.1959 96.6105 12.8016C95.8406 12.4073 95.2679 11.9378 94.8923 11.3933C94.5262 10.8487 94.3431 10.2009 94.3431 9.4498C94.3431 8.20109 94.8688 7.14486 95.9204 6.28109C96.9813 5.41732 98.3333 4.98544 99.9763 4.98544C101.704 4.98544 103.103 5.4314 104.173 6.32334C105.253 7.21527 105.793 8.35601 105.793 9.74555H103.173C103.173 9.032 102.868 8.41703 102.258 7.90065C101.657 7.38427 100.896 7.12608 99.9763 7.12608C99.0281 7.12608 98.2864 7.33263 97.7512 7.74574C97.216 8.15884 96.9485 8.6987 96.9485 9.3653C96.9485 9.99435 97.1973 10.4685 97.6949 10.7877C98.1925 11.1069 99.0891 11.4121 100.385 11.7031C101.69 11.9942 102.746 12.3415 103.553 12.7453C104.361 13.149 104.957 13.6372 105.342 14.2099C105.736 14.7732 105.934 15.4633 105.934 16.2801C105.934 17.6415 105.389 18.7353 104.3 19.5615C103.211 20.3783 101.798 20.7867 100.061 20.7867C98.8403 20.7867 97.7606 20.5708 96.8217 20.1389C95.8828 19.707 95.1458 19.1062 94.6106 18.3363C94.0849 17.557 93.822 16.7167 93.822 15.8154H96.4274C96.4743 16.6885 96.8217 17.3833 97.4695 17.8997C98.1267 18.4067 98.9905 18.6602 100.061 18.6602C101.047 18.6602 101.835 18.463 102.427 18.0687C103.028 17.665 103.328 17.1298 103.328 16.4632Z" fill="white"/>
<path d="M118.735 18.9982C117.721 20.1906 116.233 20.7867 114.271 20.7867C112.646 20.7867 111.407 20.3173 110.553 19.3784C109.708 18.4302 109.281 17.0312 109.271 15.1816V5.2671H111.877V15.1112C111.877 17.4209 112.815 18.5757 114.693 18.5757C116.684 18.5757 118.007 17.834 118.665 16.3505V5.2671H121.27V20.5051H118.791L118.735 18.9982Z" fill="white"/>
<path d="M132.607 7.60491C132.213 7.53918 131.785 7.50632 131.325 7.50632C129.617 7.50632 128.457 8.23395 127.847 9.68921V20.5051H125.242V5.2671H127.776L127.819 7.0275C128.673 5.66612 129.884 4.98544 131.452 4.98544C131.959 4.98544 132.344 5.05116 132.607 5.1826V7.60491Z" fill="white"/>
<path d="M141.057 20.7867C138.991 20.7867 137.311 20.1108 136.015 18.7588C134.719 17.3974 134.072 15.5807 134.072 13.3086V12.8298C134.072 11.3182 134.358 9.97088 134.931 8.78789C135.513 7.59552 136.32 6.66603 137.353 5.99943C138.395 5.32343 139.522 4.98544 140.733 4.98544C142.714 4.98544 144.254 5.63796 145.352 6.943C146.451 8.24804 147 10.1164 147 12.5481V13.6325H136.677C136.715 15.1347 137.151 16.3505 137.987 17.28C138.832 18.2001 139.902 18.6602 141.198 18.6602C142.118 18.6602 142.897 18.4724 143.536 18.0969C144.174 17.7213 144.733 17.2237 145.211 16.604L146.803 17.8434C145.526 19.8056 143.611 20.7867 141.057 20.7867ZM140.733 7.12608C139.681 7.12608 138.799 7.51102 138.085 8.2809C137.372 9.04139 136.846 10.0131 136.677 11.3933L144.395 11.4919V11.2947C144.32 9.97088 143.963 8.9475 143.324 8.22456C142.686 7.49224 141.822 7.12608 140.733 7.12608Z" fill="white"/>
<path d="M36 11.3113H33.5C33.3677 11.3119 33.2368 11.3387 33.1149 11.3902C32.9931 11.4417 32.8826 11.5168 32.79 11.6113L31.55 12.9013L28.75 9.71132C28.6565 9.61141 28.5434 9.53177 28.4179 9.47732C28.2923 9.42287 28.1569 9.39477 28.02 9.39477C27.8831 9.39477 27.7477 9.42287 27.6222 9.47732C27.4966 9.53177 27.3836 9.61141 27.29 9.71132L25.59 11.4113H24C23.7348 11.4113 23.4804 11.5167 23.2929 11.7042C23.1054 11.8918 23 12.1461 23 12.4113C23 12.6765 23.1054 12.9309 23.2929 13.1184C23.4804 13.306 23.7348 13.4113 24 13.4113H26C26.1316 13.4121 26.2621 13.3869 26.3839 13.3371C26.5058 13.2873 26.6166 13.214 26.71 13.1213L28 11.7813L30.8 14.9713C30.8903 15.0743 31.0009 15.1576 31.1247 15.2161C31.2486 15.2746 31.3831 15.307 31.52 15.3113C31.6516 15.3121 31.7821 15.2869 31.9039 15.2371C32.0258 15.1873 32.1366 15.114 32.23 15.0213L33.93 13.3113H36C36.2652 13.3113 36.5196 13.206 36.7071 13.0184C36.8947 12.8309 37 12.5765 37 12.3113C37 12.0461 36.8947 11.7918 36.7071 11.6042C36.5196 11.4167 36.2652 11.3113 36 11.3113ZM28.61 16.6113L26.71 18.5113C26.617 18.6051 26.5064 18.6794 26.3846 18.7302C26.2627 18.781 26.132 18.8071 26 18.8071C25.868 18.8071 25.7373 18.781 25.6154 18.7302C25.4936 18.6794 25.383 18.6051 25.29 18.5113L20.08 13.3013C19.7371 12.9586 19.4651 12.5518 19.2796 12.1039C19.094 11.6561 18.9985 11.1761 18.9985 10.6913C18.9985 10.2066 19.094 9.72655 19.2796 9.27871C19.4651 8.83088 19.7371 8.424 20.08 8.08132C20.7717 7.39189 21.7084 7.00476 22.685 7.00476C23.6616 7.00476 24.5983 7.39189 25.29 8.08132C25.383 8.17505 25.4936 8.24945 25.6154 8.30021C25.7373 8.35098 25.868 8.37712 26 8.37712C26.132 8.37712 26.2627 8.35098 26.3846 8.30021C26.5064 8.24945 26.617 8.17505 26.71 8.08132C27.4127 7.41304 28.3453 7.04037 29.315 7.04037C30.2847 7.04037 31.2173 7.41304 31.92 8.08132C32.1428 8.30707 32.3376 8.55889 32.5 8.83132C32.6456 9.03154 32.8603 9.17062 33.1026 9.22167C33.3448 9.27272 33.5974 9.2321 33.8114 9.10767C34.0254 8.98324 34.1856 8.78385 34.2611 8.54808C34.3366 8.3123 34.322 8.05691 34.22 7.83132C33.9728 7.42087 33.6774 7.0415 33.34 6.70132C32.391 5.74117 31.1311 5.15043 29.786 5.03498C28.4409 4.91953 27.0988 5.28693 26 6.07132C25.1509 5.45962 24.1492 5.0944 23.1057 5.01597C22.0621 4.93755 21.0171 5.14896 20.0861 5.62689C19.155 6.10482 18.3742 6.83067 17.8296 7.72435C17.285 8.61804 16.9979 9.6448 17 10.6913C16.9997 11.4354 17.1472 12.1722 17.4339 12.8588C17.7205 13.5455 18.1407 14.1683 18.67 14.6913L23.88 19.9013C24.4425 20.4631 25.205 20.7787 26 20.7787C26.795 20.7787 27.5575 20.4631 28.12 19.9013L30 18.0213C30.1863 17.834 30.2908 17.5805 30.2908 17.3163C30.2908 17.0521 30.1863 16.7987 30 16.6113C29.8135 16.4311 29.5644 16.3303 29.305 16.3303C29.0457 16.3303 28.7965 16.4311 28.61 16.6113Z" fill="white"/>
<path d="M36 11.3113H33.5C33.3677 11.3119 33.2368 11.3387 33.1149 11.3902C32.9931 11.4417 32.8826 11.5168 32.79 11.6113L31.55 12.9013L28.75 9.71132C28.6565 9.61141 28.5434 9.53177 28.4179 9.47732C28.2923 9.42287 28.1569 9.39477 28.02 9.39477C27.8831 9.39477 27.7477 9.42287 27.6222 9.47732C27.4966 9.53177 27.3836 9.61141 27.29 9.71132L25.59 11.4113H24C23.7348 11.4113 23.4804 11.5167 23.2929 11.7042C23.1054 11.8918 23 12.1461 23 12.4113C23 12.6765 23.1054 12.9309 23.2929 13.1184C23.4804 13.306 23.7348 13.4113 24 13.4113H26C26.1316 13.4121 26.2621 13.3869 26.3839 13.3371C26.5058 13.2873 26.6166 13.214 26.71 13.1213L28 11.7813L30.8 14.9713C30.8903 15.0743 31.0009 15.1576 31.1247 15.2161C31.2486 15.2746 31.3831 15.307 31.52 15.3113C31.6516 15.3121 31.7821 15.2869 31.9039 15.2371C32.0258 15.1873 32.1366 15.114 32.23 15.0213L33.93 13.3113H36C36.2652 13.3113 36.5196 13.206 36.7071 13.0184C36.8947 12.8309 37 12.5765 37 12.3113C37 12.0461 36.8947 11.7918 36.7071 11.6042C36.5196 11.4167 36.2652 11.3113 36 11.3113ZM28.61 16.6113L26.71 18.5113C26.617 18.6051 26.5064 18.6794 26.3846 18.7302C26.2627 18.781 26.132 18.8071 26 18.8071C25.868 18.8071 25.7373 18.781 25.6154 18.7302C25.4936 18.6794 25.383 18.6051 25.29 18.5113L20.08 13.3013C19.7371 12.9586 19.4651 12.5518 19.2796 12.1039C19.094 11.6561 18.9985 11.1761 18.9985 10.6913C18.9985 10.2066 19.094 9.72655 19.2796 9.27871C19.4651 8.83088 19.7371 8.424 20.08 8.08132C20.7717 7.39189 21.7084 7.00476 22.685 7.00476C23.6616 7.00476 24.5983 7.39189 25.29 8.08132C25.383 8.17505 25.4936 8.24945 25.6154 8.30021C25.7373 8.35098 25.868 8.37712 26 8.37712C26.132 8.37712 26.2627 8.35098 26.3846 8.30021C26.5064 8.24945 26.617 8.17505 26.71 8.08132C27.4127 7.41304 28.3453 7.04037 29.315 7.04037C30.2847 7.04037 31.2173 7.41304 31.92 8.08132C32.1428 8.30707 32.3376 8.55889 32.5 8.83132C32.6456 9.03154 32.8603 9.17062 33.1026 9.22167C33.3448 9.27272 33.5974 9.2321 33.8114 9.10767C34.0254 8.98324 34.1856 8.78385 34.2611 8.54808C34.3366 8.3123 34.322 8.05691 34.22 7.83132C33.9728 7.42087 33.6774 7.0415 33.34 6.70132C32.391 5.74117 31.1311 5.15043 29.786 5.03498C28.4409 4.91953 27.0988 5.28693 26 6.07132C25.1509 5.45962 24.1492 5.0944 23.1057 5.01597C22.0621 4.93755 21.0171 5.14896 20.0861 5.62689C19.155 6.10482 18.3742 6.83067 17.8296 7.72435C17.285 8.61804 16.9979 9.6448 17 10.6913C16.9997 11.4354 17.1472 12.1722 17.4339 12.8588C17.7205 13.5455 18.1407 14.1683 18.67 14.6913L23.88 19.9013C24.4425 20.4631 25.205 20.7787 26 20.7787C26.795 20.7787 27.5575 20.4631 28.12 19.9013L30 18.0213C30.1863 17.834 30.2908 17.5805 30.2908 17.3163C30.2908 17.0521 30.1863 16.7987 30 16.6113C29.8135 16.4311 29.5644 16.3303 29.305 16.3303C29.0457 16.3303 28.7965 16.4311 28.61 16.6113Z" stroke="white"/>
</svg>
